<svg id="my-svg" width="100%" xmlns="http://www.w3.org/2000/svg" xmlns:xlink="http://www.w3.org/1999/xlink" style="max-width: 4190px; background-color: white;" viewBox="100 -56 4190 635.2000122070312" role="graphics-document document" aria-roledescription="timeline"><style>#my-svg{font-family:"trebuchet ms",verdana,arial,sans-serif;font-size:10pt;fill:#333;}@keyframes edge-animation-frame{from{stroke-dashoffset:0;}}@keyframes dash{to{stroke-dashoffset:0;}}#my-svg .edge-animation-slow{stroke-dasharray:9,5!important;stroke-dashoffset:900;animation:dash 50s linear infinite;stroke-linecap:round;}#my-svg .edge-animation-fast{stroke-dasharray:9,5!important;stroke-dashoffset:900;animation:dash 20s linear infinite;stroke-linecap:round;}#my-svg .error-icon{fill:#552222;}#my-svg .error-text{fill:#552222;stroke:#552222;}#my-svg .edge-thickness-normal{stroke-width:1px;}#my-svg .edge-thickness-thick{stroke-width:3.5px;}#my-svg .edge-pattern-solid{stroke-dasharray:0;}#my-svg .edge-thickness-invisible{stroke-width:0;fill:none;}#my-svg .edge-pattern-dashed{stroke-dasharray:3;}#my-svg .edge-pattern-dotted{stroke-dasharray:2;}#my-svg .marker{fill:#333333;stroke:#333333;}#my-svg .marker.cross{stroke:#333333;}#my-svg svg{font-family:"trebuchet ms",verdana,arial,sans-serif;font-size:10pt;}#my-svg p{margin:0;}#my-svg .edge{stroke-width:3;}#my-svg .section--1 rect,#my-svg .section--1 path,#my-svg .section--1 circle,#my-svg .section--1 path{fill:hsl(240, 100%, 76.2745098039%);}#my-svg .section--1 text{fill:#ffffff;}#my-svg .node-icon--1{font-size:40px;color:#ffffff;}#my-svg .section-edge--1{stroke:hsl(240, 100%, 76.2745098039%);}#my-svg .edge-depth--1{stroke-width:17;}#my-svg .section--1 line{stroke:hsl(60, 100%, 86.2745098039%);stroke-width:3;}#my-svg .lineWrapper line{stroke:#ffffff;}#my-svg .disabled,#my-svg .disabled circle,#my-svg .disabled text{fill:lightgray;}#my-svg .disabled text{fill:#efefef;}#my-svg .section-0 rect,#my-svg .section-0 path,#my-svg .section-0 circle,#my-svg .section-0 path{fill:hsl(60, 100%, 73.5294117647%);}#my-svg .section-0 text{fill:black;}#my-svg .node-icon-0{font-size:40px;color:black;}#my-svg .section-edge-0{stroke:hsl(60, 100%, 73.5294117647%);}#my-svg .edge-depth-0{stroke-width:14;}#my-svg .section-0 line{stroke:hsl(240, 100%, 83.5294117647%);stroke-width:3;}#my-svg .lineWrapper line{stroke:black;}#my-svg .disabled,#my-svg .disabled circle,#my-svg .disabled text{fill:lightgray;}#my-svg .disabled text{fill:#efefef;}#my-svg .section-1 rect,#my-svg .section-1 path,#my-svg .section-1 circle,#my-svg .section-1 path{fill:hsl(80, 100%, 76.2745098039%);}#my-svg .section-1 text{fill:black;}#my-svg .node-icon-1{font-size:40px;color:black;}#my-svg .section-edge-1{stroke:hsl(80, 100%, 76.2745098039%);}#my-svg .edge-depth-1{stroke-width:11;}#my-svg .section-1 line{stroke:hsl(260, 100%, 86.2745098039%);stroke-width:3;}#my-svg .lineWrapper line{stroke:black;}#my-svg .disabled,#my-svg .disabled circle,#my-svg .disabled text{fill:lightgray;}#my-svg .disabled text{fill:#efefef;}#my-svg .section-2 rect,#my-svg .section-2 path,#my-svg .section-2 circle,#my-svg .section-2 path{fill:hsl(270, 100%, 76.2745098039%);}#my-svg .section-2 text{fill:#ffffff;}#my-svg .node-icon-2{font-size:40px;color:#ffffff;}#my-svg .section-edge-2{stroke:hsl(270, 100%, 76.2745098039%);}#my-svg .edge-depth-2{stroke-width:8;}#my-svg .section-2 line{stroke:hsl(90, 100%, 86.2745098039%);stroke-width:3;}#my-svg .lineWrapper line{stroke:#ffffff;}#my-svg .disabled,#my-svg .disabled circle,#my-svg .disabled text{fill:lightgray;}#my-svg .disabled text{fill:#efefef;}#my-svg .section-3 rect,#my-svg .section-3 path,#my-svg .section-3 circle,#my-svg .section-3 path{fill:hsl(300, 100%, 76.2745098039%);}#my-svg .section-3 text{fill:black;}#my-svg .node-icon-3{font-size:40px;color:black;}#my-svg .section-edge-3{stroke:hsl(300, 100%, 76.2745098039%);}#my-svg .edge-depth-3{stroke-width:5;}#my-svg .section-3 line{stroke:hsl(120, 100%, 86.2745098039%);stroke-width:3;}#my-svg .lineWrapper line{stroke:black;}#my-svg .disabled,#my-svg .disabled circle,#my-svg .disabled text{fill:lightgray;}#my-svg .disabled text{fill:#efefef;}#my-svg .section-4 rect,#my-svg .section-4 path,#my-svg .section-4 circle,#my-svg .section-4 path{fill:hsl(330, 100%, 76.2745098039%);}#my-svg .section-4 text{fill:black;}#my-svg .node-icon-4{font-size:40px;color:black;}#my-svg .section-edge-4{stroke:hsl(330, 100%, 76.2745098039%);}#my-svg .edge-depth-4{stroke-width:2;}#my-svg .section-4 line{stroke:hsl(150, 100%, 86.2745098039%);stroke-width:3;}#my-svg .lineWrapper line{stroke:black;}#my-svg .disabled,#my-svg .disabled circle,#my-svg .disabled text{fill:lightgray;}#my-svg .disabled text{fill:#efefef;}#my-svg .section-5 rect,#my-svg .section-5 path,#my-svg .section-5 circle,#my-svg .section-5 path{fill:hsl(0, 100%, 76.2745098039%);}#my-svg .section-5 text{fill:black;}#my-svg .node-icon-5{font-size:40px;color:black;}#my-svg .section-edge-5{stroke:hsl(0, 100%, 76.2745098039%);}#my-svg .edge-depth-5{stroke-width:-1;}#my-svg .section-5 line{stroke:hsl(180, 100%, 86.2745098039%);stroke-width:3;}#my-svg .lineWrapper line{stroke:black;}#my-svg .disabled,#my-svg .disabled circle,#my-svg .disabled text{fill:lightgray;}#my-svg .disabled text{fill:#efefef;}#my-svg .section-6 rect,#my-svg .section-6 path,#my-svg .section-6 circle,#my-svg .section-6 path{fill:hsl(30, 100%, 76.2745098039%);}#my-svg .section-6 text{fill:black;}#my-svg .node-icon-6{font-size:40px;color:black;}#my-svg .section-edge-6{stroke:hsl(30, 100%, 76.2745098039%);}#my-svg .edge-depth-6{stroke-width:-4;}#my-svg .section-6 line{stroke:hsl(210, 100%, 86.2745098039%);stroke-width:3;}#my-svg .lineWrapper line{stroke:black;}#my-svg .disabled,#my-svg .disabled circle,#my-svg .disabled text{fill:lightgray;}#my-svg .disabled text{fill:#efefef;}#my-svg .section-7 rect,#my-svg .section-7 path,#my-svg .section-7 circle,#my-svg .section-7 path{fill:hsl(90, 100%, 76.2745098039%);}#my-svg .section-7 text{fill:black;}#my-svg .node-icon-7{font-size:40px;color:black;}#my-svg .section-edge-7{stroke:hsl(90, 100%, 76.2745098039%);}#my-svg .edge-depth-7{stroke-width:-7;}#my-svg .section-7 line{stroke:hsl(270, 100%, 86.2745098039%);stroke-width:3;}#my-svg .lineWrapper line{stroke:black;}#my-svg .disabled,#my-svg .disabled circle,#my-svg .disabled text{fill:lightgray;}#my-svg .disabled text{fill:#efefef;}#my-svg .section-8 rect,#my-svg .section-8 path,#my-svg .section-8 circle,#my-svg .section-8 path{fill:hsl(150, 100%, 76.2745098039%);}#my-svg .section-8 text{fill:black;}#my-svg .node-icon-8{font-size:40px;color:black;}#my-svg .section-edge-8{stroke:hsl(150, 100%, 76.2745098039%);}#my-svg .edge-depth-8{stroke-width:-10;}#my-svg .section-8 line{stroke:hsl(330, 100%, 86.2745098039%);stroke-width:3;}#my-svg .lineWrapper line{stroke:black;}#my-svg .disabled,#my-svg .disabled circle,#my-svg .disabled text{fill:lightgray;}#my-svg .disabled text{fill:#efefef;}#my-svg .section-9 rect,#my-svg .section-9 path,#my-svg .section-9 circle,#my-svg .section-9 path{fill:hsl(180, 100%, 76.2745098039%);}#my-svg .section-9 text{fill:black;}#my-svg .node-icon-9{font-size:40px;color:black;}#my-svg .section-edge-9{stroke:hsl(180, 100%, 76.2745098039%);}#my-svg .edge-depth-9{stroke-width:-13;}#my-svg .section-9 line{stroke:hsl(0, 100%, 86.2745098039%);stroke-width:3;}#my-svg .lineWrapper line{stroke:black;}#my-svg .disabled,#my-svg .disabled circle,#my-svg .disabled text{fill:lightgray;}#my-svg .disabled text{fill:#efefef;}#my-svg .section-10 rect,#my-svg .section-10 path,#my-svg .section-10 circle,#my-svg .section-10 path{fill:hsl(210, 100%, 76.2745098039%);}#my-svg .section-10 text{fill:black;}#my-svg .node-icon-10{font-size:40px;color:black;}#my-svg .section-edge-10{stroke:hsl(210, 100%, 76.2745098039%);}#my-svg .edge-depth-10{stroke-width:-16;}#my-svg .section-10 line{stroke:hsl(30, 100%, 86.2745098039%);stroke-width:3;}#my-svg .lineWrapper line{stroke:black;}#my-svg .disabled,#my-svg .disabled circle,#my-svg .disabled text{fill:lightgray;}#my-svg .disabled text{fill:#efefef;}#my-svg .section-root rect,#my-svg .section-root path,#my-svg .section-root circle{fill:hsl(240, 100%, 46.2745098039%);}#my-svg .section-root text{fill:#ffffff;}#my-svg .icon-container{height:100%;display:flex;justify-content:center;align-items:center;}#my-svg .edge{fill:none;}#my-svg .eventWrapper{filter:brightness(120%);}#my-svg :root{--mermaid-font-family:"trebuchet ms",verdana,arial,sans-serif;}</style><g/><g/><defs><marker id="arrowhead" refX="5" refY="2" markerWidth="6" markerHeight="4" orient="auto"><path d="M 0,0 V 4 L6,2 Z"/></marker></defs><g transform="translate(200, 50)"><g class="timeline-node section--1"><g><path id="node-undefined" class="node-bkg node-undefined" d="M0 59.79999904632568 v-54.79999904632568 q0,-5 5,-5 h1580 q5,0 5,5 v59.79999904632568 H0 Z"/><line class="node-line--1" x1="0" y1="64.79999904632568" x2="1590" y2="64.79999904632568"/></g><g transform="translate(795, 10)"><text dy="1em" alignment-baseline="middle" dominant-baseline="middle" text-anchor="middle"><tspan x="0" dy="1em">Ledger   +   discovery</tspan></text></g></g></g><g class="taskWrapper" transform="translate(200, 164.7999990463257)"><g class="timeline-node section--1"><g><path id="node-undefined" class="node-bkg node-undefined" d="M0 59.79999904632568 v-54.79999904632568 q0,-5 5,-5 h180 q5,0 5,5 v59.79999904632568 H0 Z"/><line class="node-line--1" x1="0" y1="64.79999904632568" x2="190" y2="64.79999904632568"/></g><g transform="translate(95, 10)"><text dy="1em" alignment-baseline="middle" dominant-baseline="middle" text-anchor="middle"><tspan x="0" dy="1em">2026-01-05</tspan></text></g></g></g><g class="lineWrapper"><line x1="295" y1="229.5999980926514" x2="295" y2="529.1999961853028" stroke-width="2" stroke="black" marker-end="url(#arrowhead)" stroke-dasharray="5,5"/></g><g class="eventWrapper" transform="translate(200, 364.7999990463257)"><g class="timeline-node section--1"><g><path id="node-undefined" class="node-bkg node-undefined" d="M0 45 v-40 q0,-5 5,-5 h180 q5,0 5,5 v45 H0 Z"/><line class="node-line--1" x1="0" y1="50" x2="190" y2="50"/></g><g transform="translate(95, 10)"><text dy="1em" alignment-baseline="middle" dominant-baseline="middle" text-anchor="middle"><tspan x="0" dy="1em">First   CANON   committed</tspan></text></g></g></g><g class="taskWrapper" transform="translate(400, 164.7999990463257)"><g class="timeline-node section--1"><g><path id="node-undefined" class="node-bkg node-undefined" d="M0 59.79999904632568 v-54.79999904632568 q0,-5 5,-5 h180 q5,0 5,5 v59.79999904632568 H0 Z"/><line class="node-line--1" x1="0" y1="64.79999904632568" x2="190" y2="64.79999904632568"/></g><g transform="translate(95, 10)"><text dy="1em" alignment-baseline="middle" dominant-baseline="middle" text-anchor="middle"><tspan x="0" dy="1em">2026-01-06</tspan></text></g></g></g><g class="lineWrapper"><line x1="495" y1="229.5999980926514" x2="495" y2="529.1999961853028" stroke-width="2" stroke="black" marker-end="url(#arrowhead)" stroke-dasharray="5,5"/></g><g class="eventWrapper" transform="translate(400, 364.7999990463257)"><g class="timeline-node section--1"><g><path id="node-undefined" class="node-bkg node-undefined" d="M0 45 v-40 q0,-5 5,-5 h180 q5,0 5,5 v45 H0 Z"/><line class="node-line--1" x1="0" y1="50" x2="190" y2="50"/></g><g transform="translate(95, 10)"><text dy="1em" alignment-baseline="middle" dominant-baseline="middle" text-anchor="middle"><tspan x="0" dy="1em">Machine   scope   split</tspan></text></g></g></g><g class="taskWrapper" transform="translate(600, 164.7999990463257)"><g class="timeline-node section--1"><g><path id="node-undefined" class="node-bkg node-undefined" d="M0 59.79999904632568 v-54.79999904632568 q0,-5 5,-5 h180 q5,0 5,5 v59.79999904632568 H0 Z"/><line class="node-line--1" x1="0" y1="64.79999904632568" x2="190" y2="64.79999904632568"/></g><g transform="translate(95, 10)"><text dy="1em" alignment-baseline="middle" dominant-baseline="middle" text-anchor="middle"><tspan x="0" dy="1em">2026-01-10</tspan></text></g></g></g><g class="lineWrapper"><line x1="695" y1="229.5999980926514" x2="695" y2="529.1999961853028" stroke-width="2" stroke="black" marker-end="url(#arrowhead)" stroke-dasharray="5,5"/></g><g class="eventWrapper" transform="translate(600, 364.7999990463257)"><g class="timeline-node section--1"><g><path id="node-undefined" class="node-bkg node-undefined" d="M0 54.46666793823242 v-49.46666793823242 q0,-5 5,-5 h180 q5,0 5,5 v54.46666793823242 H0 Z"/><line class="node-line--1" x1="0" y1="59.46666793823242" x2="190" y2="59.46666793823242"/></g><g transform="translate(95, 10)"><text dy="1em" alignment-baseline="middle" dominant-baseline="middle" text-anchor="middle"><tspan x="0" dy="1em">OS   +   Ledger   scope</tspan><tspan x="0" dy="1.1em">separated</tspan></text></g></g></g><g class="taskWrapper" transform="translate(800, 164.7999990463257)"><g class="timeline-node section--1"><g><path id="node-undefined" class="node-bkg node-undefined" d="M0 59.79999904632568 v-54.79999904632568 q0,-5 5,-5 h180 q5,0 5,5 v59.79999904632568 H0 Z"/><line class="node-line--1" x1="0" y1="64.79999904632568" x2="190" y2="64.79999904632568"/></g><g transform="translate(95, 10)"><text dy="1em" alignment-baseline="middle" dominant-baseline="middle" text-anchor="middle"><tspan x="0" dy="1em">2026-01-11</tspan></text></g></g></g><g class="lineWrapper"><line x1="895" y1="229.5999980926514" x2="895" y2="529.1999961853028" stroke-width="2" stroke="black" marker-end="url(#arrowhead)" stroke-dasharray="5,5"/></g><g class="eventWrapper" transform="translate(800, 364.7999990463257)"><g class="timeline-node section--1"><g><path id="node-undefined" class="node-bkg node-undefined" d="M0 45 v-40 q0,-5 5,-5 h180 q5,0 5,5 v45 H0 Z"/><line class="node-line--1" x1="0" y1="50" x2="190" y2="50"/></g><g transform="translate(95, 10)"><text dy="1em" alignment-baseline="middle" dominant-baseline="middle" text-anchor="middle"><tspan x="0" dy="1em">Discovery</tspan></text></g></g></g><g class="eventWrapper" transform="translate(800, 424.7999990463257)"><g class="timeline-node section--1"><g><path id="node-undefined" class="node-bkg node-undefined" d="M0 45 v-40 q0,-5 5,-5 h180 q5,0 5,5 v45 H0 Z"/><line class="node-line--1" x1="0" y1="50" x2="190" y2="50"/></g><g transform="translate(95, 10)"><text dy="1em" alignment-baseline="middle" dominant-baseline="middle" text-anchor="middle"><tspan x="0" dy="1em">self-healing   correction</tspan></text></g></g></g><g class="taskWrapper" transform="translate(1000, 164.7999990463257)"><g class="timeline-node section--1"><g><path id="node-undefined" class="node-bkg node-undefined" d="M0 59.79999904632568 v-54.79999904632568 q0,-5 5,-5 h180 q5,0 5,5 v59.79999904632568 H0 Z"/><line class="node-line--1" x1="0" y1="64.79999904632568" x2="190" y2="64.79999904632568"/></g><g transform="translate(95, 10)"><text dy="1em" alignment-baseline="middle" dominant-baseline="middle" text-anchor="middle"><tspan x="0" dy="1em">2026-01-11</tspan></text></g></g></g><g class="lineWrapper"><line x1="1095" y1="229.5999980926514" x2="1095" y2="529.1999961853028" stroke-width="2" stroke="black" marker-end="url(#arrowhead)" stroke-dasharray="5,5"/></g><g class="eventWrapper" transform="translate(1000, 364.7999990463257)"><g class="timeline-node section--1"><g><path id="node-undefined" class="node-bkg node-undefined" d="M0 45 v-40 q0,-5 5,-5 h180 q5,0 5,5 v45 H0 Z"/><line class="node-line--1" x1="0" y1="50" x2="190" y2="50"/></g><g transform="translate(95, 10)"><text dy="1em" alignment-baseline="middle" dominant-baseline="middle" text-anchor="middle"><tspan x="0" dy="1em">Discovery</tspan></text></g></g></g><g class="eventWrapper" transform="translate(1000, 424.7999990463257)"><g class="timeline-node section--1"><g><path id="node-undefined" class="node-bkg node-undefined" d="M0 45 v-40 q0,-5 5,-5 h180 q5,0 5,5 v45 H0 Z"/><line class="node-line--1" x1="0" y1="50" x2="190" y2="50"/></g><g transform="translate(95, 10)"><text dy="1em" alignment-baseline="middle" dominant-baseline="middle" text-anchor="middle"><tspan x="0" dy="1em">misunderstanding   chain</tspan></text></g></g></g><g class="taskWrapper" transform="translate(1200, 164.7999990463257)"><g class="timeline-node section--1"><g><path id="node-undefined" class="node-bkg node-undefined" d="M0 59.79999904632568 v-54.79999904632568 q0,-5 5,-5 h180 q5,0 5,5 v59.79999904632568 H0 Z"/><line class="node-line--1" x1="0" y1="64.79999904632568" x2="190" y2="64.79999904632568"/></g><g transform="translate(95, 10)"><text dy="1em" alignment-baseline="middle" dominant-baseline="middle" text-anchor="middle"><tspan x="0" dy="1em">2026-01-12</tspan></text></g></g></g><g class="lineWrapper"><line x1="1295" y1="229.5999980926514" x2="1295" y2="529.1999961853028" stroke-width="2" stroke="black" marker-end="url(#arrowhead)" stroke-dasharray="5,5"/></g><g class="eventWrapper" transform="translate(1200, 364.7999990463257)"><g class="timeline-node section--1"><g><path id="node-undefined" class="node-bkg node-undefined" d="M0 45 v-40 q0,-5 5,-5 h180 q5,0 5,5 v45 H0 Z"/><line class="node-line--1" x1="0" y1="50" x2="190" y2="50"/></g><g transform="translate(95, 10)"><text dy="1em" alignment-baseline="middle" dominant-baseline="middle" text-anchor="middle"><tspan x="0" dy="1em">Validators   +   Stack   added</tspan></text></g></g></g><g class="taskWrapper" transform="translate(1400, 164.7999990463257)"><g class="timeline-node section--1"><g><path id="node-undefined" class="node-bkg node-undefined" d="M0 59.79999904632568 v-54.79999904632568 q0,-5 5,-5 h180 q5,0 5,5 v59.79999904632568 H0 Z"/><line class="node-line--1" x1="0" y1="64.79999904632568" x2="190" y2="64.79999904632568"/></g><g transform="translate(95, 10)"><text dy="1em" alignment-baseline="middle" dominant-baseline="middle" text-anchor="middle"><tspan x="0" dy="1em">2026-01-12</tspan></text></g></g></g><g class="lineWrapper"><line x1="1495" y1="229.5999980926514" x2="1495" y2="529.1999961853028" stroke-width="2" stroke="black" marker-end="url(#arrowhead)" stroke-dasharray="5,5"/></g><g class="eventWrapper" transform="translate(1400, 364.7999990463257)"><g class="timeline-node section--1"><g><path id="node-undefined" class="node-bkg node-undefined" d="M0 45 v-40 q0,-5 5,-5 h180 q5,0 5,5 v45 H0 Z"/><line class="node-line--1" x1="0" y1="50" x2="190" y2="50"/></g><g transform="translate(95, 10)"><text dy="1em" alignment-baseline="middle" dominant-baseline="middle" text-anchor="middle"><tspan x="0" dy="1em">Freeze   declared</tspan></text></g></g></g><g class="taskWrapper" transform="translate(1600, 164.7999990463257)"><g class="timeline-node section--1"><g><path id="node-undefined" class="node-bkg node-undefined" d="M0 59.79999904632568 v-54.79999904632568 q0,-5 5,-5 h180 q5,0 5,5 v59.79999904632568 H0 Z"/><line class="node-line--1" x1="0" y1="64.79999904632568" x2="190" y2="64.79999904632568"/></g><g transform="translate(95, 10)"><text dy="1em" alignment-baseline="middle" dominant-baseline="middle" text-anchor="middle"><tspan x="0" dy="1em">2026-01-13</tspan></text></g></g></g><g class="lineWrapper"><line x1="1695" y1="229.5999980926514" x2="1695" y2="529.1999961853028" stroke-width="2" stroke="black" marker-end="url(#arrowhead)" stroke-dasharray="5,5"/></g><g class="eventWrapper" transform="translate(1600, 364.7999990463257)"><g class="timeline-node section--1"><g><path id="node-undefined" class="node-bkg node-undefined" d="M0 54.46666793823242 v-49.46666793823242 q0,-5 5,-5 h180 q5,0 5,5 v54.46666793823242 H0 Z"/><line class="node-line--1" x1="0" y1="59.46666793823242" x2="190" y2="59.46666793823242"/></g><g transform="translate(95, 10)"><text dy="1em" alignment-baseline="middle" dominant-baseline="middle" text-anchor="middle"><tspan x="0" dy="1em">[reconstruction]</tspan><tspan x="0" dy="1.1em">Discovery   lexicon</tspan></text></g></g></g><g transform="translate(1800, 50)"><g class="timeline-node section-0"><g><path id="node-undefined" class="node-bkg node-undefined" d="M0 59.79999904632568 v-54.79999904632568 q0,-5 5,-5 h980 q5,0 5,5 v59.79999904632568 H0 Z"/><line class="node-line-0" x1="0" y1="64.79999904632568" x2="990" y2="64.79999904632568"/></g><g transform="translate(495, 10)"><text dy="1em" alignment-baseline="middle" dominant-baseline="middle" text-anchor="middle"><tspan x="0" dy="1em">PAPER   CANON   drift</tspan></text></g></g></g><g class="taskWrapper" transform="translate(1800, 164.7999990463257)"><g class="timeline-node section-0"><g><path id="node-undefined" class="node-bkg node-undefined" d="M0 59.79999904632568 v-54.79999904632568 q0,-5 5,-5 h180 q5,0 5,5 v59.79999904632568 H0 Z"/><line class="node-line-0" x1="0" y1="64.79999904632568" x2="190" y2="64.79999904632568"/></g><g transform="translate(95, 10)"><text dy="1em" alignment-baseline="middle" dominant-baseline="middle" text-anchor="middle"><tspan x="0" dy="1em">2026-01-07</tspan></text></g></g></g><g class="lineWrapper"><line x1="1895" y1="229.5999980926514" x2="1895" y2="529.1999961853028" stroke-width="2" stroke="black" marker-end="url(#arrowhead)" stroke-dasharray="5,5"/></g><g class="eventWrapper" transform="translate(1800, 364.7999990463257)"><g class="timeline-node section-0"><g><path id="node-undefined" class="node-bkg node-undefined" d="M0 45 v-40 q0,-5 5,-5 h180 q5,0 5,5 v45 H0 Z"/><line class="node-line-0" x1="0" y1="50" x2="190" y2="50"/></g><g transform="translate(95, 10)"><text dy="1em" alignment-baseline="middle" dominant-baseline="middle" text-anchor="middle"><tspan x="0" dy="1em">Expanded   constraints</tspan></text></g></g></g><g class="taskWrapper" transform="translate(2000, 164.7999990463257)"><g class="timeline-node section-0"><g><path id="node-undefined" class="node-bkg node-undefined" d="M0 59.79999904632568 v-54.79999904632568 q0,-5 5,-5 h180 q5,0 5,5 v59.79999904632568 H0 Z"/><line class="node-line-0" x1="0" y1="64.79999904632568" x2="190" y2="64.79999904632568"/></g><g transform="translate(95, 10)"><text dy="1em" alignment-baseline="middle" dominant-baseline="middle" text-anchor="middle"><tspan x="0" dy="1em">2026-01-11</tspan></text></g></g></g><g class="lineWrapper"><line x1="2095" y1="229.5999980926514" x2="2095" y2="529.1999961853028" stroke-width="2" stroke="black" marker-end="url(#arrowhead)" stroke-dasharray="5,5"/></g><g class="eventWrapper" transform="translate(2000, 364.7999990463257)"><g class="timeline-node section-0"><g><path id="node-undefined" class="node-bkg node-undefined" d="M0 45 v-40 q0,-5 5,-5 h180 q5,0 5,5 v45 H0 Z"/><line class="node-line-0" x1="0" y1="50" x2="190" y2="50"/></g><g transform="translate(95, 10)"><text dy="1em" alignment-baseline="middle" dominant-baseline="middle" text-anchor="middle"><tspan x="0" dy="1em">Minimal   reset</tspan></text></g></g></g><g class="taskWrapper" transform="translate(2200, 164.7999990463257)"><g class="timeline-node section-0"><g><path id="node-undefined" class="node-bkg node-undefined" d="M0 59.79999904632568 v-54.79999904632568 q0,-5 5,-5 h180 q5,0 5,5 v59.79999904632568 H0 Z"/><line class="node-line-0" x1="0" y1="64.79999904632568" x2="190" y2="64.79999904632568"/></g><g transform="translate(95, 10)"><text dy="1em" alignment-baseline="middle" dominant-baseline="middle" text-anchor="middle"><tspan x="0" dy="1em">2026-01-13</tspan></text></g></g></g><g class="lineWrapper"><line x1="2295" y1="229.5999980926514" x2="2295" y2="529.1999961853028" stroke-width="2" stroke="black" marker-end="url(#arrowhead)" stroke-dasharray="5,5"/></g><g class="eventWrapper" transform="translate(2200, 364.7999990463257)"><g class="timeline-node section-0"><g><path id="node-undefined" class="node-bkg node-undefined" d="M0 45 v-40 q0,-5 5,-5 h180 q5,0 5,5 v45 H0 Z"/><line class="node-line-0" x1="0" y1="50" x2="190" y2="50"/></g><g transform="translate(95, 10)"><text dy="1em" alignment-baseline="middle" dominant-baseline="middle" text-anchor="middle"><tspan x="0" dy="1em">Section   anchoring</tspan></text></g></g></g><g class="taskWrapper" transform="translate(2400, 164.7999990463257)"><g class="timeline-node section-0"><g><path id="node-undefined" class="node-bkg node-undefined" d="M0 59.79999904632568 v-54.79999904632568 q0,-5 5,-5 h180 q5,0 5,5 v59.79999904632568 H0 Z"/><line class="node-line-0" x1="0" y1="64.79999904632568" x2="190" y2="64.79999904632568"/></g><g transform="translate(95, 10)"><text dy="1em" alignment-baseline="middle" dominant-baseline="middle" text-anchor="middle"><tspan x="0" dy="1em">2026-01-13</tspan></text></g></g></g><g class="lineWrapper"><line x1="2495" y1="229.5999980926514" x2="2495" y2="529.1999961853028" stroke-width="2" stroke="black" marker-end="url(#arrowhead)" stroke-dasharray="5,5"/></g><g class="eventWrapper" transform="translate(2400, 364.7999990463257)"><g class="timeline-node section-0"><g><path id="node-undefined" class="node-bkg node-undefined" d="M0 45 v-40 q0,-5 5,-5 h180 q5,0 5,5 v45 H0 Z"/><line class="node-line-0" x1="0" y1="50" x2="190" y2="50"/></g><g transform="translate(95, 10)"><text dy="1em" alignment-baseline="middle" dominant-baseline="middle" text-anchor="middle"><tspan x="0" dy="1em">Section   continuity</tspan></text></g></g></g><g class="taskWrapper" transform="translate(2600, 164.7999990463257)"><g class="timeline-node section-0"><g><path id="node-undefined" class="node-bkg node-undefined" d="M0 59.79999904632568 v-54.79999904632568 q0,-5 5,-5 h180 q5,0 5,5 v59.79999904632568 H0 Z"/><line class="node-line-0" x1="0" y1="64.79999904632568" x2="190" y2="64.79999904632568"/></g><g transform="translate(95, 10)"><text dy="1em" alignment-baseline="middle" dominant-baseline="middle" text-anchor="middle"><tspan x="0" dy="1em">2026-01-13</tspan></text></g></g></g><g class="lineWrapper"><line x1="2695" y1="229.5999980926514" x2="2695" y2="529.1999961853028" stroke-width="2" stroke="black" marker-end="url(#arrowhead)" stroke-dasharray="5,5"/></g><g class="eventWrapper" transform="translate(2600, 364.7999990463257)"><g class="timeline-node section-0"><g><path id="node-undefined" class="node-bkg node-undefined" d="M0 54.46666793823242 v-49.46666793823242 q0,-5 5,-5 h180 q5,0 5,5 v54.46666793823242 H0 Z"/><line class="node-line-0" x1="0" y1="59.46666793823242" x2="190" y2="59.46666793823242"/></g><g transform="translate(95, 10)"><text dy="1em" alignment-baseline="middle" dominant-baseline="middle" text-anchor="middle"><tspan x="0" dy="1em">[post-freeze]   Formatting</tspan><tspan x="0" dy="1.1em">profile</tspan></text></g></g></g><g transform="translate(2800, 50)"><g class="timeline-node section-1"><g><path id="node-undefined" class="node-bkg node-undefined" d="M0 59.79999904632568 v-54.79999904632568 q0,-5 5,-5 h1180 q5,0 5,5 v59.79999904632568 H0 Z"/><line class="node-line-1" x1="0" y1="64.79999904632568" x2="1190" y2="64.79999904632568"/></g><g transform="translate(595, 10)"><text dy="1em" alignment-baseline="middle" dominant-baseline="middle" text-anchor="middle"><tspan x="0" dy="1em">PAPER   VOCAB   drift</tspan></text></g></g></g><g class="taskWrapper" transform="translate(2800, 164.7999990463257)"><g class="timeline-node section-1"><g><path id="node-undefined" class="node-bkg node-undefined" d="M0 59.79999904632568 v-54.79999904632568 q0,-5 5,-5 h180 q5,0 5,5 v59.79999904632568 H0 Z"/><line class="node-line-1" x1="0" y1="64.79999904632568" x2="190" y2="64.79999904632568"/></g><g transform="translate(95, 10)"><text dy="1em" alignment-baseline="middle" dominant-baseline="middle" text-anchor="middle"><tspan x="0" dy="1em">2026-01-07</tspan></text></g></g></g><g class="lineWrapper"><line x1="2895" y1="229.5999980926514" x2="2895" y2="529.1999961853028" stroke-width="2" stroke="black" marker-end="url(#arrowhead)" stroke-dasharray="5,5"/></g><g class="eventWrapper" transform="translate(2800, 364.7999990463257)"><g class="timeline-node section-1"><g><path id="node-undefined" class="node-bkg node-undefined" d="M0 54.46666793823242 v-49.46666793823242 q0,-5 5,-5 h180 q5,0 5,5 v54.46666793823242 H0 Z"/><line class="node-line-1" x1="0" y1="59.46666793823242" x2="190" y2="59.46666793823242"/></g><g transform="translate(95, 10)"><text dy="1em" alignment-baseline="middle" dominant-baseline="middle" text-anchor="middle"><tspan x="0" dy="1em">DICTIONARY   -&gt;   VOCAB</tspan><tspan x="0" dy="1.1em">rename</tspan></text></g></g></g><g class="taskWrapper" transform="translate(3000, 164.7999990463257)"><g class="timeline-node section-1"><g><path id="node-undefined" class="node-bkg node-undefined" d="M0 59.79999904632568 v-54.79999904632568 q0,-5 5,-5 h180 q5,0 5,5 v59.79999904632568 H0 Z"/><line class="node-line-1" x1="0" y1="64.79999904632568" x2="190" y2="64.79999904632568"/></g><g transform="translate(95, 10)"><text dy="1em" alignment-baseline="middle" dominant-baseline="middle" text-anchor="middle"><tspan x="0" dy="1em">2026-01-10</tspan></text></g></g></g><g class="lineWrapper"><line x1="3095" y1="229.5999980926514" x2="3095" y2="529.1999961853028" stroke-width="2" stroke="black" marker-end="url(#arrowhead)" stroke-dasharray="5,5"/></g><g class="eventWrapper" transform="translate(3000, 364.7999990463257)"><g class="timeline-node section-1"><g><path id="node-undefined" class="node-bkg node-undefined" d="M0 45 v-40 q0,-5 5,-5 h180 q5,0 5,5 v45 H0 Z"/><line class="node-line-1" x1="0" y1="50" x2="190" y2="50"/></g><g transform="translate(95, 10)"><text dy="1em" alignment-baseline="middle" dominant-baseline="middle" text-anchor="middle"><tspan x="0" dy="1em">Concept-only   vocab</tspan></text></g></g></g><g class="taskWrapper" transform="translate(3200, 164.7999990463257)"><g class="timeline-node section-1"><g><path id="node-undefined" class="node-bkg node-undefined" d="M0 59.79999904632568 v-54.79999904632568 q0,-5 5,-5 h180 q5,0 5,5 v59.79999904632568 H0 Z"/><line class="node-line-1" x1="0" y1="64.79999904632568" x2="190" y2="64.79999904632568"/></g><g transform="translate(95, 10)"><text dy="1em" alignment-baseline="middle" dominant-baseline="middle" text-anchor="middle"><tspan x="0" dy="1em">2026-01-11</tspan></text></g></g></g><g class="lineWrapper"><line x1="3295" y1="229.5999980926514" x2="3295" y2="529.1999961853028" stroke-width="2" stroke="black" marker-end="url(#arrowhead)" stroke-dasharray="5,5"/></g><g class="eventWrapper" transform="translate(3200, 364.7999990463257)"><g class="timeline-node section-1"><g><path id="node-undefined" class="node-bkg node-undefined" d="M0 45 v-40 q0,-5 5,-5 h180 q5,0 5,5 v45 H0 Z"/><line class="node-line-1" x1="0" y1="50" x2="190" y2="50"/></g><g transform="translate(95, 10)"><text dy="1em" alignment-baseline="middle" dominant-baseline="middle" text-anchor="middle"><tspan x="0" dy="1em">Minimal   triad   reset</tspan></text></g></g></g><g class="taskWrapper" transform="translate(3400, 164.7999990463257)"><g class="timeline-node section-1"><g><path id="node-undefined" class="node-bkg node-undefined" d="M0 59.79999904632568 v-54.79999904632568 q0,-5 5,-5 h180 q5,0 5,5 v59.79999904632568 H0 Z"/><line class="node-line-1" x1="0" y1="64.79999904632568" x2="190" y2="64.79999904632568"/></g><g transform="translate(95, 10)"><text dy="1em" alignment-baseline="middle" dominant-baseline="middle" text-anchor="middle"><tspan x="0" dy="1em">2026-01-12</tspan></text></g></g></g><g class="lineWrapper"><line x1="3495" y1="229.5999980926514" x2="3495" y2="529.1999961853028" stroke-width="2" stroke="black" marker-end="url(#arrowhead)" stroke-dasharray="5,5"/></g><g class="eventWrapper" transform="translate(3400, 364.7999990463257)"><g class="timeline-node section-1"><g><path id="node-undefined" class="node-bkg node-undefined" d="M0 45 v-40 q0,-5 5,-5 h180 q5,0 5,5 v45 H0 Z"/><line class="node-line-1" x1="0" y1="50" x2="190" y2="50"/></g><g transform="translate(95, 10)"><text dy="1em" alignment-baseline="middle" dominant-baseline="middle" text-anchor="middle"><tspan x="0" dy="1em">VOCAB   closure   pass</tspan></text></g></g></g><g class="taskWrapper" transform="translate(3600, 164.7999990463257)"><g class="timeline-node section-1"><g><path id="node-undefined" class="node-bkg node-undefined" d="M0 59.79999904632568 v-54.79999904632568 q0,-5 5,-5 h180 q5,0 5,5 v59.79999904632568 H0 Z"/><line class="node-line-1" x1="0" y1="64.79999904632568" x2="190" y2="64.79999904632568"/></g><g transform="translate(95, 10)"><text dy="1em" alignment-baseline="middle" dominant-baseline="middle" text-anchor="middle"><tspan x="0" dy="1em">2026-01-12</tspan></text></g></g></g><g class="lineWrapper"><line x1="3695" y1="229.5999980926514" x2="3695" y2="529.1999961853028" stroke-width="2" stroke="black" marker-end="url(#arrowhead)" stroke-dasharray="5,5"/></g><g class="eventWrapper" transform="translate(3600, 364.7999990463257)"><g class="timeline-node section-1"><g><path id="node-undefined" class="node-bkg node-undefined" d="M0 45 v-40 q0,-5 5,-5 h180 q5,0 5,5 v45 H0 Z"/><line class="node-line-1" x1="0" y1="50" x2="190" y2="50"/></g><g transform="translate(95, 10)"><text dy="1em" alignment-baseline="middle" dominant-baseline="middle" text-anchor="middle"><tspan x="0" dy="1em">VOCAB   removed</tspan></text></g></g></g><g class="taskWrapper" transform="translate(3800, 164.7999990463257)"><g class="timeline-node section-1"><g><path id="node-undefined" class="node-bkg node-undefined" d="M0 59.79999904632568 v-54.79999904632568 q0,-5 5,-5 h180 q5,0 5,5 v59.79999904632568 H0 Z"/><line class="node-line-1" x1="0" y1="64.79999904632568" x2="190" y2="64.79999904632568"/></g><g transform="translate(95, 10)"><text dy="1em" alignment-baseline="middle" dominant-baseline="middle" text-anchor="middle"><tspan x="0" dy="1em">2026-01-12</tspan></text></g></g></g><g class="lineWrapper"><line x1="3895" y1="229.5999980926514" x2="3895" y2="529.1999961853028" stroke-width="2" stroke="black" marker-end="url(#arrowhead)" stroke-dasharray="5,5"/></g><g class="eventWrapper" transform="translate(3800, 364.7999990463257)"><g class="timeline-node section-1"><g><path id="node-undefined" class="node-bkg node-undefined" d="M0 45 v-40 q0,-5 5,-5 h180 q5,0 5,5 v45 H0 Z"/><line class="node-line-1" x1="0" y1="50" x2="190" y2="50"/></g><g transform="translate(95, 10)"><text dy="1em" alignment-baseline="middle" dominant-baseline="middle" text-anchor="middle"><tspan x="0" dy="1em">VOCAB   restored</tspan></text></g></g></g><text x="1745" font-size="4ex" font-weight="bold" y="20">Evidence Window + PAPER CANON/VOCAB Drift</text><g class="lineWrapper"><line x1="150" y1="279.5999980926514" x2="4240" y2="279.5999980926514" stroke-width="4" stroke="black" marker-end="url(#arrowhead)"/></g></svg>